<svg width="1300" height="240" viewBox="0 0 1300 240" fill="none" xmlns="http://www.w3.org/2000/svg">
<path d="M361.564 237.664C315.173 237.664 280.54 205.46 280.54 160.447C280.54 115.433 315.173 83.23 361.778 83.23C387.65 83.23 409.239 92.6145 423.353 109.688L401.121 130.17C391.075 118.645 378.461 112.686 363.491 112.686C335.478 112.686 315.601 132.311 315.601 160.465C315.601 188.618 335.478 208.243 363.491 208.243C378.461 208.243 391.075 202.267 401.121 190.545L423.353 211.027C409.239 228.315 387.65 237.699 361.564 237.699V237.664Z" fill="white"/>
<path d="M476.239 135.486C484.357 124.389 498.042 118.626 515.796 118.626V149.349C513.012 149.135 510.871 148.921 508.32 148.921C489.924 148.921 477.737 158.948 477.737 180.928V235.112H444.389V120.339H476.239V135.486Z" fill="white"/>
<path d="M647.243 178.145C647.243 180.696 646.815 184.336 646.601 187.101H559.582C562.794 201.392 574.98 210.134 592.502 210.134C604.688 210.134 613.449 206.513 621.371 199.037L639.125 218.234C628.437 230.402 612.396 236.789 591.663 236.789C551.892 236.789 526.02 211.829 526.02 177.699C526.02 143.569 552.32 118.609 587.381 118.609C622.442 118.609 647.243 141.214 647.243 178.127V178.145ZM587.595 143.801C572.411 143.801 561.509 152.971 559.154 167.69H615.804C613.449 153.185 602.547 143.801 587.577 143.801H587.595Z" fill="white"/>
<path d="M753.264 76.8062H786.612V235.093H754.763V221.873C746.431 231.9 734.244 236.806 718.846 236.806C686.354 236.806 661.339 213.773 661.339 177.716C661.339 141.659 686.354 118.626 718.846 118.626C732.959 118.626 744.932 123.104 753.264 132.489V76.8062ZM724.609 209.509C741.078 209.509 753.907 197.555 753.907 177.716C753.907 157.877 741.078 145.923 724.609 145.923C708.14 145.923 695.097 157.877 695.097 177.716C695.097 197.555 707.926 209.509 724.609 209.509Z" fill="white"/>
<path d="M817.479 235.093V76.8062H850.827V235.093H817.479Z" fill="white"/>
<path d="M898.468 104.336C886.067 104.336 877.735 96.2364 877.735 85.7814C877.735 75.3265 886.067 67.2266 898.468 67.2266C910.869 67.2266 919.201 74.8983 919.201 85.1391C919.201 96.2364 910.869 104.336 898.468 104.336ZM881.785 235.095V120.322H915.133V235.095H881.785Z" fill="white"/>
<path d="M1014.09 118.626C1046.37 118.626 1071.38 141.659 1071.38 177.716C1071.38 213.773 1046.37 236.806 1014.09 236.806C998.69 236.806 986.29 231.9 977.957 221.873V235.093H946.108V76.8062H979.456V132.489C988.003 123.104 999.761 118.626 1014.09 118.626ZM1008.31 209.509C1024.99 209.509 1037.61 197.555 1037.61 177.716C1037.61 157.877 1024.99 145.923 1008.31 145.923C991.625 145.923 979.028 157.877 979.028 177.716C979.028 197.555 991.643 209.509 1008.31 209.509Z" fill="white"/>
<path d="M1206.38 178.145C1206.38 180.696 1205.95 184.336 1205.74 187.101H1118.72C1121.93 201.392 1134.12 210.134 1151.64 210.134C1163.82 210.134 1172.58 206.513 1180.51 199.037L1198.26 218.234C1187.57 230.402 1171.53 236.789 1150.8 236.789C1111.03 236.789 1085.17 211.829 1085.17 177.699C1085.17 143.569 1111.47 118.609 1146.53 118.609C1181.6 118.609 1206.4 141.214 1206.4 178.127L1206.38 178.145ZM1146.73 143.801C1131.55 143.801 1120.64 152.971 1118.29 167.69H1174.94C1172.58 153.185 1161.68 143.801 1146.71 143.801H1146.73Z" fill="white"/>
<path d="M1260.44 135.486C1268.56 124.389 1282.25 118.626 1300 118.626V149.349C1297.22 149.135 1295.08 148.921 1292.52 148.921C1274.13 148.921 1261.94 158.948 1261.94 180.928V235.112H1228.59V120.339H1260.44V135.486Z" fill="white"/>
<path d="M240.02 80V160C240.02 197.716 240.02 216.574 228.333 228.278C221.66 234.969 212.667 237.841 199.16 239.072C189.025 240 176.339 240 160.192 240H79.846C75.1534 240 70.7641 240 66.6424 239.982C59.3983 239.946 52.9928 239.839 47.2831 239.536C30.1363 238.626 19.3772 235.986 11.7048 228.296C0 216.557 0 197.698 0 160V80C0 42.2837 0 23.4255 11.687 11.7217C23.3918 0 42.1979 0 79.8282 0H160.174C197.804 0 216.628 0 228.315 11.7217C240.002 23.4434 240.002 42.2837 240.002 80H240.02Z" fill="#FF095C"/>
<path fill-rule="evenodd" clip-rule="evenodd" d="M208.456 214.506C207.35 213.168 206.012 213.168 204.905 214.506C180.247 237.111 144.062 240.875 117.066 230.01C60.5401 205.532 52.8856 144.479 75.7599 107.352C76.099 106.692 76.3131 106.424 76.7591 106.138C110.625 84.0868 151.823 89.4034 179.372 113.453C180.372 114.221 180.978 114.221 182.156 113.453L213.916 81.7674C215.325 80.3758 215.058 79.6978 214.861 79.1626C214.844 79.1091 214.826 79.0555 214.808 79.002C214.719 78.7344 214.041 78.1456 213.702 77.8958C191.595 57.5033 155.624 47.7264 123.525 56.3972C102.203 62.1599 81.6659 74.8985 67.2311 96.1653C66.8208 96.8967 66.4818 97.1287 66.1784 97.3428C66.1784 97.3428 66.1427 97.3606 66.1249 97.3785C55.2409 105.139 25.0332 130.724 25.0332 178.378C25.6934 202.32 33.0089 222.017 47.3009 239.502C53.0105 239.805 59.4161 239.912 66.6602 239.948C30.7072 207.37 33.7047 162.071 49.7988 134.488C50.5839 133.489 51.7794 133.989 51.5831 135.38C44.0357 186.353 73.3512 224.461 106.663 239.983H160.209C176.357 239.983 189.043 239.983 199.178 239.056C202.943 234.738 205.673 232.008 208.956 228.725C210.561 227.12 212.31 225.371 214.362 223.248C215.022 222.356 215.022 221.464 214.362 220.697L208.474 214.488L208.456 214.506ZM103.844 79.1091C130.162 62.713 166.704 61.0537 196.448 81.1073C197.162 81.589 197.34 82.3205 196.555 82.9984L182.227 97.6282C181.674 98.1813 181.121 97.8423 180.675 97.5212C161.69 83.8905 134.819 75.2554 104.505 80.8932C103.505 81.1073 102.72 79.8941 103.844 79.1269V79.1091Z" fill="#F5F5F5"/>
</svg>
