<svg width="241" height="240" viewBox="0 0 241 240" fill="none" xmlns="http://www.w3.org/2000/svg">
<path d="M240.02 80V160C240.02 197.716 240.02 216.574 228.333 228.278C221.66 234.969 212.667 237.841 199.16 239.072C189.025 240 176.339 240 160.192 240H79.846C75.1534 240 70.7641 240 66.6424 239.982C59.3983 239.946 52.9928 239.839 47.2831 239.536C30.1363 238.626 19.3772 235.986 11.7048 228.296C0 216.557 0 197.698 0 160V80C0 42.2837 0 23.4255 11.687 11.7217C23.3918 0 42.1979 0 79.8282 0H160.174C197.804 0 216.628 0 228.315 11.7217C240.002 23.4434 240.002 42.2837 240.002 80H240.02Z" fill="#FF095C"/>
<path fill-rule="evenodd" clip-rule="evenodd" d="M208.456 214.506C207.35 213.168 206.012 213.168 204.905 214.506C180.247 237.111 144.062 240.875 117.066 230.01C60.5401 205.532 52.8856 144.479 75.7599 107.352C76.099 106.692 76.3131 106.424 76.7591 106.138C110.625 84.0868 151.823 89.4034 179.372 113.453C180.372 114.221 180.978 114.221 182.156 113.453L213.916 81.7674C215.325 80.3758 215.058 79.6978 214.861 79.1626C214.844 79.1091 214.826 79.0555 214.808 79.002C214.719 78.7344 214.041 78.1456 213.702 77.8958C191.595 57.5033 155.624 47.7264 123.525 56.3972C102.203 62.1599 81.6659 74.8985 67.2311 96.1653C66.8208 96.8967 66.4818 97.1287 66.1784 97.3428C66.1784 97.3428 66.1427 97.3606 66.1249 97.3785C55.2409 105.139 25.0332 130.724 25.0332 178.378C25.6934 202.32 33.0089 222.017 47.3009 239.502C53.0105 239.805 59.4161 239.912 66.6602 239.948C30.7072 207.37 33.7047 162.071 49.7988 134.488C50.5839 133.489 51.7794 133.989 51.5831 135.38C44.0357 186.353 73.3512 224.461 106.663 239.983H160.209C176.357 239.983 189.043 239.983 199.178 239.056C202.943 234.738 205.673 232.008 208.956 228.725C210.561 227.12 212.31 225.371 214.362 223.248C215.022 222.356 215.022 221.464 214.362 220.697L208.474 214.488L208.456 214.506ZM103.844 79.1091C130.162 62.713 166.704 61.0537 196.448 81.1073C197.162 81.589 197.34 82.3205 196.555 82.9984L182.227 97.6282C181.674 98.1813 181.121 97.8423 180.675 97.5212C161.69 83.8905 134.819 75.2554 104.505 80.8932C103.505 81.1073 102.72 79.8941 103.844 79.1269V79.1091Z" fill="#F5F5F5"/>
</svg>
